<svg xmlns="http://www.w3.org/2000/svg" id="prefix___00_Header_bakingo_logo" width="120" height="53.947" data-name="00_Header_bakingo_logo"><defs><style>.prefix__cls-1,.prefix__cls-2{fill:red}.prefix__cls-2{fill-rule:evenodd}</style></defs><path id="prefix__Path_1" d="M140.546 43.4q.6 0 1.36-1.175a18.263 18.263 0 0 0 1.485-2.942q.728-1.768 1.4-3.838a32.306 32.306 0 0 0 1.006-3.848 15.288 15.288 0 0 0 .323-2.948q-.015-1.17-.534-1.184-.6 0-1.313 1.192a23.551 23.551 0 0 0-1.444 2.935q-.733 1.743-1.4 3.813a39.327 39.327 0 0 0-1.047 3.855 13.892 13.892 0 0 0-.364 2.955q.014 1.168.534 1.183m5.462-22.092a5.23 5.23 0 0 1 3.635 1.239 6.957 6.957 0 0 1 1.982 3.249 14.864 14.864 0 0 1 .551 4.6 27.22 27.22 0 0 1-.661 5.314 30.375 30.375 0 0 1-1.707 5.314 23.343 23.343 0 0 1-2.56 4.6 13.876 13.876 0 0 1-3.221 3.248 6.318 6.318 0 0 1-3.69 1.24 5.709 5.709 0 0 1-3.827-1.24 7.031 7.031 0 0 1-2.12-3.248 13.337 13.337 0 0 1-.579-4.6 27.337 27.337 0 0 1 .715-5.314 29.321 29.321 0 0 1 1.789-5.314 24.6 24.6 0 0 1 2.643-4.6 13.809 13.809 0 0 1 3.3-3.249 6.571 6.571 0 0 1 3.744-1.239z" class="prefix__cls-1" data-name="Path 1" transform="translate(-32.18 -5.584)"/><path id="prefix__Path_2" d="M117.088 43.4q.6 0 1.36-1.175a18.324 18.324 0 0 0 1.486-2.942q.728-1.768 1.394-3.838a32.136 32.136 0 0 0 1.006-3.848 15.277 15.277 0 0 0 .322-2.948q-.015-1.17-.534-1.184-.6 0-1.313 1.192a23.561 23.561 0 0 0-1.443 2.935q-.734 1.743-1.4 3.813a39.114 39.114 0 0 0-1.047 3.855 13.846 13.846 0 0 0-.364 2.955q.013 1.168.533 1.183m-4.906 12.545a1.579 1.579 0 0 0 1.349-.3 4.4 4.4 0 0 0 1.156-1.377 16.285 16.285 0 0 0 1.019-2.174q.5-1.267.992-2.643a3.745 3.745 0 0 0-2.285-.331 3.81 3.81 0 0 0-1.763.882 4.516 4.516 0 0 0-1.156 1.625 6.172 6.172 0 0 0-.5 1.872 3.44 3.44 0 0 0 .193 1.6 1.333 1.333 0 0 0 .995.845zm17.951-16.575a33.938 33.938 0 0 1-1.707 4.819 23.765 23.765 0 0 1-1.926 3.523 16.64 16.64 0 0 1-1.955 2.423 14.242 14.242 0 0 1-1.734 1.514 29.786 29.786 0 0 1-1.982 3.909 10.943 10.943 0 0 1-2.313 2.753 6.493 6.493 0 0 1-2.781 1.377 6.245 6.245 0 0 1-3.331-.276 4.337 4.337 0 0 1-2.836-2.285 6.048 6.048 0 0 1-.5-3.414 8.153 8.153 0 0 1 1.294-3.387 5.782 5.782 0 0 1 2.642-2.258 6.342 6.342 0 0 1-1.982-3.718 17.544 17.544 0 0 1-.166-5.424 30.839 30.839 0 0 1 1.349-6.112 27.421 27.421 0 0 1 2.56-5.7 16.589 16.589 0 0 1 3.469-4.185 6.233 6.233 0 0 1 4.075-1.625 3.308 3.308 0 0 1 2.23.688 3.392 3.392 0 0 1 1.074 1.845 7.715 7.715 0 0 1 2.231-1.294 7.61 7.61 0 0 1 2.231-.523 2.092 2.092 0 0 1 1.487.358q.5.412 0 1.349a22.522 22.522 0 0 0-1.6 3.937q-.827 2.561-1.625 5.342t-1.459 5.286q-.661 2.506-.992 3.828-.329 1.266-.66 2.422t-.716 2.313a14.248 14.248 0 0 0 2.478-2.946 19.534 19.534 0 0 0 2.148-4.819q.5-1.6.964-1.487t.033 1.766z" class="prefix__cls-1" data-name="Path 2" transform="translate(-26.217 -5.856)"/><path id="prefix__Path_3" d="M105.163 39.093q.385-1.6.881-1.487t.11 1.762q-.165.827-.606 2.616a21.26 21.26 0 0 1-1.239 3.58 12.04 12.04 0 0 1-2.038 3.166 3.952 3.952 0 0 1-3.056 1.377 5.082 5.082 0 0 1-2.478-.633 4.042 4.042 0 0 1-1.762-2.065 5.077 5.077 0 0 1-.468-2.175 20.833 20.833 0 0 1 .166-2.891 29.577 29.577 0 0 1 .633-3.414q.441-1.817.991-3.744.386-1.377.744-2.7t.578-2.341a8.144 8.144 0 0 0 .22-1.625q0-.606-.33-.605-.55 0-1.267 1.377a24.466 24.466 0 0 0-1.377 3.3q-.55 2.038-1.24 4.185t-1.184 4.13a20.786 20.786 0 0 0-.605 3.718 5.7 5.7 0 0 0 .5 2.946 1.451 1.451 0 0 1-.138 1.817 2.784 2.784 0 0 1-1.872.715 4.805 4.805 0 0 1-2.456-.602 4.3 4.3 0 0 1-1.928-2.092 7.9 7.9 0 0 1-.605-3.689 22.738 22.738 0 0 1 .688-4.378q.579-2.285 1.4-4.653t1.514-4.543a32.818 32.818 0 0 0 1.019-3.992 5.843 5.843 0 0 0-.11-3.029 1.087 1.087 0 0 1 .358-1.4 2.163 2.163 0 0 1 1.762-.22 4.663 4.663 0 0 1 2.175 1.349 6.312 6.312 0 0 1 1.542 3.3 11.951 11.951 0 0 1 2.533-3.469 4.633 4.633 0 0 1 3.194-1.377 3.243 3.243 0 0 1 3.414 2.4q.771 2.4-.551 7.352-.276 1.046-.715 2.616t-.854 3.194q-.412 1.625-.771 3.056t-.523 2.2a3.563 3.563 0 0 0-.027 1.927c.166.4.395.606.688.606a1.223 1.223 0 0 0 .936-.551 7.474 7.474 0 0 0 .854-1.4 16.526 16.526 0 0 0 .744-1.817c.221-.643.407-1.239.554-1.789" class="prefix__cls-1" data-name="Path 3" transform="translate(-20.521 -5.584)"/><path id="prefix__Path_4" d="M77.11 50.663a5.562 5.562 0 0 1-2.561-.633 3.493 3.493 0 0 1-1.735-2.065 8.989 8.989 0 0 1-.413-2.781 22.9 22.9 0 0 1 .248-3.607q.276-1.928.744-4.02t1.018-4.02q.55-1.928 1.1-3.634t1.046-2.864a4.986 4.986 0 0 1 1.982-2.533 5.289 5.289 0 0 1 2.561-.881 2.683 2.683 0 0 1 1.982.605 1.788 1.788 0 0 1 .358 1.982q-.55 1.761-1.184 3.854t-1.24 4.295q-.6 2.2-1.129 4.351t-.8 3.965A3.13 3.13 0 0 0 79.2 44.6c.22.4.478.606.772.606a1.268 1.268 0 0 0 .908-.551 5.938 5.938 0 0 0 .853-1.4q.386-.853.716-1.817T83 39.649a4.015 4.015 0 0 1 .468-1.184q.248-.358.441-.3t.248.5a3.576 3.576 0 0 1-.165 1.266q-.166.827-.606 2.616a22.931 22.931 0 0 1-1.211 3.58 11.55 11.55 0 0 1-2.01 3.166 3.946 3.946 0 0 1-3.055 1.378" class="prefix__cls-1" data-name="Path 4" transform="translate(-17.412 -6.158)"/><path id="prefix__Path_5" d="M61.58 33.234a7.736 7.736 0 0 1 .688 2.615q.138 1.459.275 2.754a10.864 10.864 0 0 0 .413 2.147 1.006 1.006 0 0 0 1.1.8 1.427 1.427 0 0 0 .826-.633 8.942 8.942 0 0 0 .854-1.4 15.692 15.692 0 0 0 .744-1.762q.33-.936.551-1.762A4.015 4.015 0 0 1 67.5 34.8q.248-.358.44-.3t.248.5a3.576 3.576 0 0 1-.165 1.266q-.165.827-.605 2.616a22.776 22.776 0 0 1-1.211 3.58 11.514 11.514 0 0 1-2.01 3.166A3.951 3.951 0 0 1 61.14 47a3.81 3.81 0 0 1-2.313-.881 6.433 6.433 0 0 1-1.927-2.973 8.442 8.442 0 0 1-.523-2.7q-.027-1.322.055-2.616t.083-2.478a6.521 6.521 0 0 0-.441-2.34q-.55 1.926-.991 3.689t-.688 3.249a14.187 14.187 0 0 0-.22 2.642 4.781 4.781 0 0 0 .358 1.873 1.479 1.479 0 0 1-.11 1.817 2.675 2.675 0 0 1-1.846.718 4.935 4.935 0 0 1-2.478-.606 4.266 4.266 0 0 1-1.955-2.094 8.468 8.468 0 0 1-.358-4.433 46.866 46.866 0 0 1 1.266-6.222q.909-3.387 2.121-7.022t2.227-6.91q1.02-3.276 1.569-5.837a7.364 7.364 0 0 0 .11-3.772 1.087 1.087 0 0 1 .358-1.4A2.16 2.16 0 0 1 57.2 8.48a4.663 4.663 0 0 1 2.175 1.349 6.312 6.312 0 0 1 1.542 3.3 7.8 7.8 0 0 1-.083 2.809q-.3 1.762-.881 3.993t-1.377 4.791q-.8 2.561-1.569 5.149a6.151 6.151 0 0 0 2.121-2.506q.743-1.569 1.377-3.248a26.952 26.952 0 0 1 1.461-3.217 5.531 5.531 0 0 1 2.478-2.368 4.551 4.551 0 0 1 2.616-.523 5.367 5.367 0 0 1 2.257.688 2.1 2.1 0 0 1 1.074 1.294q.165.744-.881 1.294a4.084 4.084 0 0 0-1.679 1.487 14.925 14.925 0 0 0-.964 1.955 21.07 21.07 0 0 1-1.1 2.258 8.649 8.649 0 0 1-2.038 2.341 9.339 9.339 0 0 1-1.845 1.211 9.212 9.212 0 0 1-1.789.661 7.523 7.523 0 0 1 1.486 2.038" class="prefix__cls-1" data-name="Path 5" transform="translate(-11.464 -2.023)"/><path id="prefix__Path_6" d="M30.8 43.4q.6 0 1.36-1.175a18.264 18.264 0 0 0 1.486-2.942q.727-1.768 1.394-3.838a32.277 32.277 0 0 0 1.006-3.845 15.288 15.288 0 0 0 .323-2.948q-.015-1.17-.534-1.184-.6 0-1.314 1.192a23.658 23.658 0 0 0-1.444 2.935q-.733 1.743-1.4 3.813a39.112 39.112 0 0 0-1.047 3.855 13.9 13.9 0 0 0-.365 2.955q.016 1.168.535 1.183m14.52-19.672a24.661 24.661 0 0 0-1.074 2.4q-.579 1.459-1.129 3.222t-1.1 3.634q-.55 1.872-1.018 3.607t-.826 3.194q-.358 1.459-.578 2.341a4.725 4.725 0 0 0-.137 1.872q.138.6.413.661a1.429 1.429 0 0 0 .881-.606 7.774 7.774 0 0 0 .854-1.377 12.121 12.121 0 0 0 .716-1.789q.3-.964.523-1.789.385-1.6.908-1.487t.138 1.762q-.22.827-.633 2.616a19.559 19.559 0 0 1-1.211 3.579 12.02 12.02 0 0 1-2.038 3.166 3.951 3.951 0 0 1-3.056 1.377 3.291 3.291 0 0 1-1.982-.688 3.451 3.451 0 0 1-1.271-2.071 4.858 4.858 0 0 1-1.845 2.038 4.5 4.5 0 0 1-2.341.715 4.225 4.225 0 0 1-3.937-2.12 11.036 11.036 0 0 1-1.322-5.342 25.783 25.783 0 0 1 .854-6.939 33.567 33.567 0 0 1 2.56-6.939 19.864 19.864 0 0 1 3.8-5.342 6.546 6.546 0 0 1 4.6-2.121 3.31 3.31 0 0 1 2.231.688 3.4 3.4 0 0 1 1.074 1.845 7.725 7.725 0 0 1 2.226-1.292 7.61 7.61 0 0 1 2.231-.523 2.092 2.092 0 0 1 1.487.358q.497.413.002 1.35z" class="prefix__cls-1" data-name="Path 6" transform="translate(-5.833 -5.584)"/><path id="prefix__Path_7" d="M7.1 40.295q.6 0 1.361-1.175a18.327 18.327 0 0 0 1.486-2.942q.728-1.768 1.4-3.838a32.275 32.275 0 0 0 1.006-3.848 15.289 15.289 0 0 0 .323-2.948q-.016-1.17-.535-1.184-.6 0-1.313 1.192a23.658 23.658 0 0 0-1.444 2.935q-.733 1.743-1.4 3.813a39.109 39.109 0 0 0-1.047 3.855 13.845 13.845 0 0 0-.364 2.955c.008.778.187 1.173.532 1.183m8.327-21.377a5.8 5.8 0 0 1 2.506 3.635 16.488 16.488 0 0 1 .432 5.649 27.532 27.532 0 0 1-1.349 6.443 26.189 26.189 0 0 1-2.891 6.085 17.087 17.087 0 0 1-4.185 4.512A8.6 8.6 0 0 1 4.741 47 4.3 4.3 0 0 1 .5 44.359 7.131 7.131 0 0 1 0 41.22a24.074 24.074 0 0 1 .551-4.268q.5-2.34 1.267-4.984t1.652-5.314l1.735-5.259q.853-2.587 1.432-4.763a35.286 35.286 0 0 0 .826-3.854 5.669 5.669 0 0 0-.083-2.616 1.128 1.128 0 0 1 .358-1.432A2.091 2.091 0 0 1 9.5 8.484a4.663 4.663 0 0 1 2.175 1.349 6.634 6.634 0 0 1 1.6 3.3 6.884 6.884 0 0 1 0 2.148q-.165 1.322-.551 3.029a3.37 3.37 0 0 1 2.7.608z" class="prefix__cls-1" data-name="Path 7" transform="translate(0 -2.024)"/><path id="prefix__Path_8" d="M80.458 12.339c.629-2.793 1.742-4.183 4.342-5.117-4.355-1.764-5.775 3.432-4.338 5.117m3.753-6.606a5.932 5.932 0 1 1-5.932 5.932 5.933 5.933 0 0 1 5.928-5.932z" class="prefix__cls-2" data-name="Path 8" transform="translate(-18.827 -1.383)"/><path id="prefix__Path_9" d="M90.278 5.338c3.8-2.708 7.12-4.132 10.566-3.811-3.251-4.039-8.68.946-10.938 3.584q.189.107.371.227" class="prefix__cls-2" data-name="Path 9" transform="translate(-21.623 -.005)"/></svg>